<svg width="512" height="512" xmlns="http://www.w3.org/2000/svg" preserveAspectRatio="xMidYMid meet">

 <g>
  <title>background</title>
  <rect fill="none" id="canvas_background" height="402" width="582" y="-1" x="-1"/>
 </g>
 <g>
  <title>Layer 1</title>
  <g id="svg_1" fill="#000000" transform="translate(0,512) scale(0.10000000149011612,-0.10000000149011612) ">
   <path fill="#860e86" id="svg_2" d="m25,5095l-25,-24l0,-653c1,-517 3,-657 14,-670c7,-9 351,-213 766,-452l753,-435l2,-54c8,-181 206,-281 358,-181c21,14 55,51 75,83l37,59l377,-217c207,-120 407,-240 445,-266c113,-80 269,-245 359,-380c75,-114 81,-120 116,-123c45,-4 78,24 78,66c0,63 -151,272 -299,415c-137,132 -185,164 -616,412c-198,114 -365,213 -372,219c-9,8 17,60 106,213c64,111 120,205 123,208c15,15 69,-30 126,-103c110,-142 157,-172 318,-197c142,-23 172,-39 214,-113c104,-184 137,-218 257,-267c197,-81 195,-78 237,-232c45,-159 69,-196 202,-296c34,-26 74,-60 88,-78c26,-30 26,-34 25,-174c0,-78 5,-161 11,-184c6,-22 42,-88 81,-144c39,-58 72,-119 75,-138c4,-24 -5,-66 -31,-144c-42,-127 -41,-175 5,-249c40,-63 103,-97 191,-104l69,-5l0,-133l0,-134l-700,0l-701,0l3,146l3,146l55,18c30,9 106,40 168,69c61,28 142,59 180,68c94,23 284,23 384,0c83,-19 108,-15 128,23c30,56 -6,104 -90,122l-57,11l-7,73c-8,103 -43,254 -62,276c-23,24 -78,24 -104,-2c-24,-24 -25,-57 -6,-142c8,-35 18,-90 22,-124l6,-60l-113,-12c-132,-13 -211,-35 -358,-102c-160,-73 -151,-73 -151,-2c0,44 -5,66 -19,83c-19,24 -22,24 -211,24c-189,0 -192,0 -211,-24c-14,-17 -19,-39 -19,-83c0,-71 9,-71 -151,2c-207,94 -363,122 -554,101c-129,-15 -176,-28 -332,-97c-153,-68 -199,-82 -290,-91l-73,-6l0,72c0,67 -2,75 -29,102l-29,29l-175,0c-161,0 -176,-2 -201,-21c-14,-11 -26,-30 -26,-41c0,-15 -4,-18 -17,-13c-107,41 -144,49 -225,49c-80,1 -89,-1 -129,-29c-27,-19 -54,-50 -71,-84l-28,-53l0,-427c0,-277 4,-440 11,-466c14,-51 93,-130 146,-144c59,-17 4752,-15 4807,1c54,16 128,90 144,144c9,30 12,161 12,467l0,425l-28,53c-17,34 -44,65 -71,84c-40,28 -49,30 -129,29c-81,0 -118,-8 -224,-49c-14,-5 -18,-2 -18,13c0,11 -12,30 -26,41c-25,19 -40,21 -201,21l-175,0l-29,-29c-27,-27 -29,-35 -29,-100l0,-71l-40,0c-51,0 -85,16 -99,47c-10,21 -5,43 25,136c53,165 44,224 -61,372c-75,107 -77,112 -76,262c1,74 -3,152 -9,172c-17,65 -66,124 -159,195c-50,38 -100,83 -110,100c-10,17 -31,75 -45,128c-14,54 -34,115 -45,137c-35,67 -102,116 -223,163c-64,24 -122,53 -137,69c-14,14 -46,62 -70,105c-92,166 -141,200 -327,233c-61,10 -125,26 -142,35c-17,9 -65,59 -107,111c-43,54 -95,107 -120,123l-44,27l65,115c70,125 80,157 70,224c-11,71 -54,125 -143,179c-141,85 -175,87 -219,12c-14,-25 -28,-45 -31,-45c-2,0 -163,92 -356,204c-608,351 -681,393 -703,400c-55,17 -111,-52 -83,-103c10,-18 170,-115 542,-330l527,-304l-38,-69c-26,-47 -41,-66 -52,-63c-8,3 -251,143 -540,310c-289,167 -696,402 -905,523l-380,219l-3,92c-1,50 -1,91 2,91c3,0 134,-75 293,-167c184,-106 298,-166 316,-166c60,0 94,81 51,122c-35,34 -718,421 -742,421c-12,0 -34,-11 -47,-25zm1010,-1049c473,-274 864,-501 869,-506c8,-8 -292,-540 -305,-540c-4,0 -290,163 -635,363c-346,200 -671,387 -721,416l-93,53l0,360c0,284 3,359 13,355c6,-2 399,-228 872,-501zm1295,-211c41,-26 60,-52 60,-80c0,-10 -127,-238 -282,-507c-251,-434 -287,-492 -316,-505c-27,-11 -38,-11 -60,-1c-34,17 -56,61 -45,92c13,37 587,1026 596,1026c4,0 25,-11 47,-25zm-1552,-3217l2,-468l-80,0l-80,0l0,470l0,471l78,-3l77,-3l3,-467zm1150,447c34,-8 113,-38 175,-66c61,-29 137,-60 167,-69l55,-18l3,-145l3,-146l-295,-3c-273,-3 -295,-4 -315,-22c-14,-13 -21,-31 -21,-57c0,-51 27,-69 102,-69l58,0l0,-160l0,-160l-235,0l-236,0l3,158l3,157l30,3c44,5 65,29 65,72c0,25 -7,43 -21,56c-19,17 -42,19 -280,22l-259,3l0,133l0,133l78,7c107,9 203,37 345,102c112,51 190,76 277,87c59,8 232,-2 298,-18zm712,-445l0,-470l-80,0l-80,0l0,470l0,470l80,0l80,0l0,-470zm1860,0l0,-470l-80,0l-80,0l0,463c0,255 3,467 7,470c3,4 39,7 80,7l73,0l0,-470zm-4179,431c30,-10 75,-29 102,-40l47,-22l0,-184l0,-185l-160,0l-160,0l0,203c0,191 1,205 20,225c26,28 77,29 151,3zm4629,-3c19,-20 20,-34 20,-225l0,-203l-160,0l-160,0l0,185l0,185l38,16c155,69 226,80 262,42zm-4482,-740l3,-158l-136,0c-131,0 -137,1 -160,25c-24,23 -25,29 -25,160l0,136l158,-3l157,-3l3,-157zm772,2l0,-160l-155,0l-155,0l0,160l0,160l155,0l155,0l0,-160zm1090,0l0,-160l-160,0l-160,0l0,153c0,85 3,157 7,160c3,4 75,7 160,7l153,0l0,-160zm778,-2l3,-158l-161,0l-160,0l0,160l0,161l158,-3l157,-3l3,-157zm620,0l3,-158l-236,0l-235,0l0,160l0,160l233,-2l232,-3l3,-157zm462,2l0,-160l-155,0l-155,0l0,160l0,160l155,0l155,0l0,-160zm780,25c0,-131 -1,-137 -25,-160c-23,-24 -29,-25 -160,-25l-135,0l0,153c0,85 3,157 7,160c3,4 75,7 160,7l153,0l0,-135z"/>
   <path fill="#860e86" id="svg_3" d="m1732,897c-30,-31 -28,-72 4,-104c20,-20 31,-24 57,-19c40,8 55,23 63,63c13,67 -77,110 -124,60z"/>
   <path fill="#860e86" id="svg_4" d="m2741,3464c-39,-50 -16,-108 46,-120c26,-5 37,-1 57,19c31,31 33,65 5,101c-15,19 -30,26 -54,26c-24,0 -39,-7 -54,-26z"/>
   <path fill="#860e86" id="svg_5" d="m3286,3387c-33,-33 -34,-76 -3,-105c31,-30 72,-28 104,4c20,20 24,31 19,57c-4,17 -12,37 -19,44c-7,7 -27,15 -44,19c-26,5 -37,1 -57,-19z"/>
   <path fill="#860e86" id="svg_6" d="m3595,2905c-28,-27 -30,-42 -14,-78c11,-25 47,-47 75,-47c25,0 64,47 64,78c0,36 -37,72 -74,72c-15,0 -37,-10 -51,-25z"/>
   <path fill="#860e86" id="svg_7" d="m3437,902c-23,-25 -22,-85 1,-105c26,-24 85,-22 107,3c43,48 10,120 -55,120c-23,0 -43,-7 -53,-18z"/>
  </g>
 </g>
</svg>